<mxfile host="app.diagrams.net" modified="2024-04-12T05:56:18.219Z" agent="Mozilla/5.0 (Windows NT 10.0; Win64; x64) AppleWebKit/537.36 (KHTML, like Gecko) Chrome/123.0.0.0 Safari/537.36" etag="2JBHzDfs1iJVzMENPADa" version="24.2.3" type="github">
  <diagram name="Page-1" id="Hmr_Y4yFZfMKMwR4dWnW">
    <mxGraphModel dx="1120" dy="468" grid="1" gridSize="10" guides="1" tooltips="1" connect="1" arrows="1" fold="1" page="1" pageScale="1" pageWidth="850" pageHeight="1100" math="0" shadow="0">
      <root>
        <mxCell id="0" />
        <mxCell id="1" parent="0" />
        <mxCell id="cZINlSRNuII8OMosNvjG-1" value="" style="strokeWidth=2;html=1;shape=mxgraph.flowchart.decision;whiteSpace=wrap;" vertex="1" parent="1">
          <mxGeometry x="375" y="242" width="100" height="100" as="geometry" />
        </mxCell>
        <mxCell id="cZINlSRNuII8OMosNvjG-2" value="Text" style="text;html=1;align=center;verticalAlign=middle;resizable=0;points=[];autosize=1;strokeColor=none;fillColor=none;" vertex="1" parent="1">
          <mxGeometry x="391" y="277" width="50" height="30" as="geometry" />
        </mxCell>
        <mxCell id="cZINlSRNuII8OMosNvjG-3" value="" style="strokeWidth=2;html=1;shape=mxgraph.flowchart.decision;whiteSpace=wrap;" vertex="1" parent="1">
          <mxGeometry x="224" y="242" width="100" height="100" as="geometry" />
        </mxCell>
        <mxCell id="cZINlSRNuII8OMosNvjG-4" value="" style="strokeWidth=2;html=1;shape=mxgraph.flowchart.decision;whiteSpace=wrap;" vertex="1" parent="1">
          <mxGeometry x="77" y="242" width="100" height="100" as="geometry" />
        </mxCell>
        <mxCell id="cZINlSRNuII8OMosNvjG-5" value="" style="strokeWidth=2;html=1;shape=mxgraph.flowchart.decision;whiteSpace=wrap;" vertex="1" parent="1">
          <mxGeometry x="521" y="242" width="100" height="100" as="geometry" />
        </mxCell>
        <mxCell id="cZINlSRNuII8OMosNvjG-8" value="" style="ellipse;html=1;shape=startState;fillColor=#000000;strokeColor=#ff0000;" vertex="1" parent="1">
          <mxGeometry x="259" y="20" width="30" height="30" as="geometry" />
        </mxCell>
        <mxCell id="cZINlSRNuII8OMosNvjG-9" value="" style="edgeStyle=orthogonalEdgeStyle;html=1;verticalAlign=bottom;endArrow=open;endSize=8;strokeColor=#ff0000;rounded=0;entryX=0;entryY=0.5;entryDx=0;entryDy=0;" edge="1" source="cZINlSRNuII8OMosNvjG-8" parent="1" target="cZINlSRNuII8OMosNvjG-10">
          <mxGeometry relative="1" as="geometry">
            <mxPoint x="330" y="35" as="targetPoint" />
          </mxGeometry>
        </mxCell>
        <mxCell id="cZINlSRNuII8OMosNvjG-10" value="Entity" style="rounded=1;arcSize=10;whiteSpace=wrap;html=1;align=center;" vertex="1" parent="1">
          <mxGeometry x="375" y="15" width="100" height="40" as="geometry" />
        </mxCell>
        <mxCell id="cZINlSRNuII8OMosNvjG-11" value="" style="strokeWidth=2;html=1;shape=mxgraph.flowchart.decision;whiteSpace=wrap;" vertex="1" parent="1">
          <mxGeometry x="670" y="242" width="100" height="100" as="geometry" />
        </mxCell>
        <mxCell id="cZINlSRNuII8OMosNvjG-13" value="Entity" style="rounded=1;arcSize=10;whiteSpace=wrap;html=1;align=center;" vertex="1" parent="1">
          <mxGeometry x="375" y="90" width="100" height="40" as="geometry" />
        </mxCell>
        <mxCell id="cZINlSRNuII8OMosNvjG-14" value="" style="endArrow=none;html=1;rounded=0;" edge="1" parent="1">
          <mxGeometry relative="1" as="geometry">
            <mxPoint x="120" y="180" as="sourcePoint" />
            <mxPoint x="720" y="179" as="targetPoint" />
          </mxGeometry>
        </mxCell>
        <mxCell id="cZINlSRNuII8OMosNvjG-15" value="" style="html=1;verticalAlign=bottom;endArrow=block;curved=0;rounded=0;entryX=0.5;entryY=0;entryDx=0;entryDy=0;entryPerimeter=0;" edge="1" parent="1">
          <mxGeometry width="80" relative="1" as="geometry">
            <mxPoint x="126" y="180" as="sourcePoint" />
            <mxPoint x="126" y="242" as="targetPoint" />
          </mxGeometry>
        </mxCell>
      </root>
    </mxGraphModel>
  </diagram>
</mxfile>
